<svg xmlns="http://www.w3.org/2000/svg" xmlns:xlink="http://www.w3.org/1999/xlink" width="500" zoomAndPan="magnify" viewBox="0 0 375 374.999991" height="500" preserveAspectRatio="xMidYMid meet" version="1.0"><defs><clipPath id="f67ceed443"><path d="M 13.089844 13.308594 L 361.839844 13.308594 L 361.839844 362 L 13.089844 362 Z M 13.089844 13.308594 " clip-rule="nonzero"/></clipPath><clipPath id="db7a73d7d2"><path d="M 146.054688 92.890625 L 192 92.890625 L 192 144.640625 L 146.054688 144.640625 Z M 146.054688 92.890625 " clip-rule="nonzero"/></clipPath><clipPath id="eb85164bac"><path d="M 163 92.890625 L 209.054688 92.890625 L 209.054688 144.640625 L 163 144.640625 Z M 163 92.890625 " clip-rule="nonzero"/></clipPath></defs><g clip-path="url(#f67ceed443)"><path fill="#1b3380" d="M 339.007812 136.621094 C 338.035156 138.496094 337.898438 140.714844 338.453125 142.796875 C 342.683594 156.945312 344.902344 171.992188 344.902344 187.53125 C 344.902344 272.28125 278.042969 341.359375 194.261719 344.96875 L 303.359375 129.757812 L 327.285156 84.050781 C 295.660156 41.257812 244.824219 13.515625 187.535156 13.445312 C 91.824219 13.308594 13.382812 91.609375 13.242188 187.320312 C 13.105469 283.519531 91.058594 361.542969 187.1875 361.613281 C 281.09375 361.683594 358.773438 286.292969 361.339844 192.453125 C 361.894531 173.519531 359.328125 155.277344 354.265625 138.148438 C 352.183594 130.933594 342.40625 129.964844 339.007812 136.621094 Z M 173.664062 286.429688 L 163.050781 309.042969 L 181.152344 345.039062 C 96.957031 341.777344 29.679688 272.558594 29.679688 187.53125 C 29.679688 153.890625 40.222656 122.75 58.117188 97.160156 L 157.296875 297.527344 L 258.417969 87.933594 L 236.777344 87.933594 L 157.019531 252.863281 L 86.96875 111.308594 L 112.839844 111.308594 L 161.316406 209.445312 L 172.207031 187.390625 L 124.976562 91.75 L 62.140625 91.75 C 90.921875 54.15625 136.28125 29.882812 187.328125 29.882812 C 234.28125 29.882812 276.449219 50.414062 305.300781 83.011719 L 187.8125 314.171875 Z M 173.664062 286.429688 " fill-opacity="1" fill-rule="nonzero"/></g><g clip-path="url(#db7a73d7d2)"><path fill="#1b3380" d="M 172.925781 129.179688 L 187.128906 92.890625 L 191.132812 92.890625 C 190.199219 95.335938 189.121094 98.171875 187.851562 101.519531 C 186.519531 105.042969 185.085938 108.777344 183.59375 112.617188 C 182.03125 116.636719 180.601562 120.320312 179.214844 123.875 C 177.761719 127.601562 176.441406 131.015625 175.285156 134.023438 C 174.695312 135.554688 174.15625 136.964844 173.65625 138.261719 C 173.160156 139.558594 172.707031 140.738281 172.296875 141.800781 C 171.914062 142.789062 171.601562 143.609375 171.347656 144.253906 L 171.171875 144.710938 L 166.699219 144.710938 L 166.523438 144.253906 C 166.273438 143.59375 165.957031 142.78125 165.558594 141.761719 C 164.75 139.6875 163.71875 137.085938 162.492188 134.03125 C 161.257812 130.957031 159.894531 127.542969 158.441406 123.878906 C 156.949219 120.136719 155.433594 116.347656 153.933594 112.628906 C 152.417969 108.859375 150.929688 105.140625 149.511719 101.570312 C 148.257812 98.410156 147.109375 95.496094 146.09375 92.890625 L 150.390625 92.890625 L 168.90625 139.5625 L 170.773438 134.605469 C 170.515625 134.007812 170.078125 132.945312 169.488281 131.5 C 168.789062 129.769531 167.945312 127.667969 166.910156 125.066406 C 165.882812 122.488281 164.765625 119.664062 163.59375 116.671875 C 162.40625 113.652344 161.167969 110.527344 159.910156 107.386719 C 158.640625 104.214844 157.429688 101.125 156.304688 98.207031 C 155.578125 96.320312 154.890625 94.542969 154.25 92.890625 L 158.566406 92.890625 Z M 172.925781 129.179688 " fill-opacity="1" fill-rule="nonzero"/></g><g clip-path="url(#eb85164bac)"><path fill="#1b3380" d="M 209.011719 92.890625 C 207.992188 95.503906 206.84375 98.417969 205.59375 101.570312 C 204.171875 105.148438 202.683594 108.867188 201.171875 112.628906 C 199.667969 116.355469 198.152344 120.144531 196.667969 123.882812 C 195.21875 127.539062 193.855469 130.953125 192.617188 134.035156 C 191.390625 137.085938 190.359375 139.683594 189.546875 141.765625 C 189.148438 142.792969 188.832031 143.605469 188.582031 144.253906 L 188.40625 144.714844 L 183.933594 144.714844 L 183.757812 144.257812 C 183.507812 143.609375 183.191406 142.792969 182.8125 141.804688 C 181.992188 139.675781 180.996094 137.085938 179.824219 134.027344 C 179.546875 133.304688 179.257812 132.554688 178.960938 131.78125 L 181.039062 126.21875 L 182.179688 129.183594 L 196.539062 92.890625 L 200.855469 92.890625 C 200.214844 94.546875 199.527344 96.324219 198.800781 98.207031 C 197.675781 101.125 196.464844 104.214844 195.195312 107.386719 C 193.933594 110.535156 192.695312 113.660156 191.511719 116.671875 C 190.34375 119.644531 189.230469 122.46875 188.195312 125.066406 C 187.160156 127.667969 186.316406 129.769531 185.617188 131.5 C 185.027344 132.945312 184.589844 134.007812 184.332031 134.605469 L 186.199219 139.5625 L 204.714844 92.890625 Z M 167.253906 101.519531 C 168.589844 105.042969 170.023438 108.777344 171.515625 112.617188 C 172.359375 114.792969 173.199219 116.957031 174.035156 119.105469 L 176.167969 113.535156 L 168.105469 92.890625 L 163.976562 92.890625 C 164.378906 93.945312 164.808594 95.078125 165.273438 96.296875 C 165.878906 97.886719 166.535156 99.617188 167.253906 101.519531 Z M 167.253906 101.519531 " fill-opacity="1" fill-rule="nonzero"/></g></svg>